<?xml version="1.0" encoding="UTF-8" standalone="no"?>
<!DOCTYPE svg PUBLIC "-//W3C//DTD SVG 1.1//EN" "http://www.w3.org/Graphics/SVG/1.1/DTD/svg11.dtd">
<svg width="100%" height="100%" viewBox="0 0 162 149" version="1.1" xmlns="http://www.w3.org/2000/svg" xmlns:xlink="http://www.w3.org/1999/xlink" xml:space="preserve" xmlns:serif="http://www.serif.com/" style="fill-rule:evenodd;clip-rule:evenodd;">
    <g id="Artboard1" transform="matrix(1.13223,0,0,0.723119,-664.652,-293.102)">
        <rect x="587.03" y="405.33" width="142.615" height="204.968" style="fill:none;"/>
        <clipPath id="_clip1">
            <rect x="587.03" y="405.33" width="142.615" height="204.968"/>
        </clipPath>
        <g clip-path="url(#_clip1)">
            <g transform="matrix(0.883214,0,0,1.3829,-40.1838,102.954)">
                <path d="M784,36.5C784.5,33 786.5,32 790,32L790.5,32.5C789,37 788.5,39 783.5,36.5C781,41 786.5,46 791,44C796,41.5 796.5,33.5 790.5,32.5M216,38.5C223.5,40 223,51 215,51C211,51 207.5,46.5 209.5,43C210,41.5 212.5,38 215,39.5C216.5,40.5 216,44 214,44.5C212.5,44.5 211,43 210,42M65.5,48.5C69,48 68.5,53.5 65.5,53.5C62,53.5 62,48.5 65.5,48.5M68,48C76,49 74,60 66.5,60.5C61.5,60.5 57.5,54.5 61.5,51M953,59.5C951.5,56.5 954.5,51.5 958,52C960,52.5 960,55.5 958.5,56.5C956.5,57.5 955,58 953,59.5M960,52C973,54 957,71 953,59.5M954.5,54.5L956,56M648,63.5C649,62 649.5,60.5 651.5,60C655,59.5 655.5,63.5 653.5,65C651,67 649,63 647.5,64.5C646,65.5 647,67 647.5,68L650,65.5M655,60C667.5,62 651.5,80 647.5,68M371.5,65C377.5,58.5 380.5,68 373.5,68C372.5,64 369,66.5 370.5,70L373.5,68M378,62C387,63.5 381.5,76.5 374,73.5C372.5,73 371.5,72 370.5,70.5M505,63.5C506.5,63.5 508,64 509,65C510,65.5 510.5,66.5 510.5,68C512,78.5 495.5,76 498,69C499,66.5 501.5,69 503,69C506,69 505,65.5 505,63.5M499.5,66.5C501,64.5 502,64 504.5,64M640.5,269C643,262.5 649.5,270.5 642,272.5C640,268.5 637.5,271.5 639.5,275L642,272.5M646,266C655.5,267.5 648.5,283.5 639.5,275.5M640,273.5L641,274.5M364,279.5C365,278 366,276.5 368,276C371,276 371.5,279.5 369.5,281C367,283 365,279 363.5,280.5C362,281.5 363,283 363.5,284L366,281.5M371,276C383.5,278 367.5,296 363.5,284M946.5,293.5C947,291.5 949.5,288.5 951.5,291C953.5,292.5 952.5,295.5 950,296C948.5,296 947.5,294 946,294C943.5,294 945,298.5 946,299.5C952,307.5 964.5,292.5 952.5,290M496.5,294.5C498,292 504,291 502,295.5C501.5,297 497.5,298.5 496,300C494.5,297 495.5,294.5 498.5,297M502,291.5C513,292.5 504.5,310 496,300.5M956,291.5L953,293.5M211.5,302.5C208.5,298 219,291 222.5,296C225.5,300 221,307 216,306.5C212,305.5 213,302 213,302M215.5,297.5L213.5,301M788.5,301.5C789.5,298 792.5,297.5 795.5,299C795,300.5 794,303.5 792,304C790.5,304 789,301 787.5,302.5C784,305 789.5,309 791.5,309.5C798,311.5 803.5,300.5 795.5,299M61.5,303.5C62,300 64.5,300 67.5,300C67.5,302 67,305.5 64.5,305.5C63,305.5 61,303 60,304.5C58,307.5 62,311 64.5,311.5C71,313 76,302 68,300.5M216.5,498C217,497 217.5,496.5 218,496C224,492 223.5,503 218.5,500.5C218,500 217,499 216.5,498.5C215,500.5 215,501.5 216,503.5L218.5,501M223,495C235,497 221.5,514.5 216,503.5M351,495.5C352.5,495.5 353.5,495.5 355,496.5C356,497.5 356.5,498.5 356.5,500C358,510.5 341.5,508 344,501C345,498.5 347.5,501 349,501C352,501 351,497.5 351,495.5M509.5,498.5C511,496 513,495.5 516,495.5L516.5,496C515,501 512.5,500.5 509,504C507.5,501 508.5,498.5 511.5,501M345.5,498.5C347,496.5 348,496 350.5,496M516.5,496C526,497.5 517,513.5 509,504.5M57.5,503C60.5,499 66,499.5 66,505.5C65.5,511.5 57.5,515 54.5,509C52.5,505.5 55,502.5 58.5,504.5L54.5,509M950.5,504C959,492.5 963,517 950.5,513C949,512.5 948,511.5 947.5,510C945.5,506.5 948,503.5 951.5,505.5L947.5,510M658,508.5C666,508 665,519.5 658,520C649.5,521.5 649.5,509.5 658,508.5M657.5,509C660,513.5 654.5,514.5 652,517M653,512L655,514M793,531C799,528 800.5,540 795,542.5C791.5,544.5 785.5,541.5 786,537C786.5,535.5 791.5,532 793,531M512,707C519,705.5 519.5,718 513,719.5C509.5,720 503.5,716.5 505,712.5C505.5,710 509.5,707.5 512,707M511,708L512,710.5L515.5,708M507,710.5C508.5,712 510.5,714 512,711.5M657,725.5L661.5,726L652,734C649.5,729.5 656.5,722.5 658,728.5M662,726C667.5,733 658,741.5 652,734.5M352.5,737C351,734 354.5,728 358.5,729.5C360.5,730 359.5,733.5 358,734.5C356,735.5 354.5,735 352.5,737M360,729C372,731 358.5,749 352.5,737M653,729L655,731M354,732L355.5,733.5M200.5,745.5C201.5,742 204.5,741.5 207.5,743C207,744.5 206,747.5 204,748C202.5,748 201,745.5 199.5,746.5C196,749 202,753.5 204,754C210.5,755.5 215,744.5 207.5,743M56,745.5L56.5,746L54.5,750.5L48.5,753C46,748.5 52,745.5 56,745.5M56.5,746C67.5,748 53.5,765.5 48.5,753M50,748.5L51.5,750M810,756.5C816,754 814,762.5 809.5,764C807,765 799,761.5 802,758C802.5,757 808.5,757 810,756.5M960,756.5C965.5,754 964,762 960.5,763.5C957.5,765 949.5,762 952,757.5C952.5,757 958.5,757.5 960,756.5M805.5,758L802.5,761M955,758L952.5,760.5" style="fill:none;fill-rule:nonzero;stroke:black;stroke-width:1px;"/>
            </g>
            <g transform="matrix(0.883214,0,0,1.3829,-40.1838,102.954)">
                <path d="M64,2.5C74.5,-2 73,16.5 76.5,21C77.5,23 80,23.5 82,25C87,28.5 93.5,33 96,39C99.5,46.5 99.5,59.5 96.5,67C95,70.5 90.5,73.5 89.5,77C88.5,81.5 90,86.5 91,90.5C92.5,99.5 95,109 96.5,118C97,121.5 98.5,126.5 94.5,128C83,132.5 87,114 82,110.5C79.5,108.5 76,112.5 73.5,113C68.5,115 62.5,115 57.5,112.5C55.5,111.5 53,108.5 51,110.5C47.5,113.5 48,121 46,125C44.5,128.5 39.5,129.5 36.5,126.5C34,123 36,117 37,113.5C39,103 42,92.5 43.5,82C44,76 39.5,72.5 36.5,67.5C34,63.5 33.5,58.5 33,54C32.5,43.5 38.5,34 46.5,27.5C49.5,25.5 55,24 57,21.5C60.5,16.5 57.5,5 64,2.5M951.5,2C963,0.5 974,3 983.5,8.5C986.5,10 992,12 992.5,16C993.5,23 983.5,29 985,36C985.5,40 988.5,43 989.5,47C992.5,57.5 991,70.5 984,78.5C976.5,86.5 965.5,90 956,94.5C953,95.5 945.5,97.5 945,101C944.5,104.5 951,106.5 953,107.5C962.5,112.5 973,116 981.5,122C984.5,124 993.5,131 985.5,133C977.5,135 973,130 966.5,127C956,122 945.5,118 935.5,112.5C931,110 922.5,108 922,102C921.5,95 933,94.5 937,91.5C938.5,90.5 941,88.5 941,86.5C941,84.5 936.5,82 935.5,80.5C931.5,76 928.5,71.5 926.5,66C925,60.5 925.5,51.5 927.5,46.5C929,43 932,39 932.5,35.5C932.5,29.5 924.5,24 923.5,18C923,14.5 927,12.5 929,10.5C936,5 943,3.5 951.5,2M783.5,5.5C796.5,3.5 806.5,9 814,19C816.5,22 818.5,27.5 821.5,30C824.5,32 829,31.5 832.5,31.5C840,31.5 847.5,32 855,32.5C858,32.5 862.5,32 865,34C869.5,37 864,43 861.5,45.5C855.5,53 847.5,60 840.5,67C838.5,69 835,73.5 831.5,73.5C823.5,74 821,59 813.5,59.5C811.5,59.5 810,62 808.5,63C805,65.5 797.5,67.5 795,71C793.5,72.5 793,80 795,81C800.5,84 814.5,79 816,87.5C817,95.5 804.5,94.5 799.5,94.5C798,94.5 795.5,94.5 794.5,96C793.5,97 794,99.5 794,101C794.5,104.5 795.5,108 798.5,110.5C801,112.5 804.5,113 806.5,116C808.5,119 807,123.5 803.5,124C798,125.5 794,120 789,119.5C783.5,118.5 775,128.5 770,121.5C764.5,114 778.5,112.5 780.5,108C782.5,104 782,99 782,95C782,88.5 782.5,82 782,75.5C781.5,68.5 776,69.5 771,66.5C767,64 764,60 761.5,56.5C747,37.5 761,9 783.5,5.5M672.5,40C679.5,39 682,54 685.5,58C689,62.5 698.5,57 701.5,62.5C707.5,72.5 690,70 686,72.5C683.5,73.5 683,80 681,82.5C678,88 672.5,92 667,95C664.5,96 659.5,97 658.5,99.5C657,105 660.5,109 665.5,110C673.5,112 681.5,110 689.5,111.5C693,112 698.5,117.5 694,120.5C690.5,123 685.5,122.5 681.5,122.5C671.5,122.5 659,123.5 651.5,115C649.5,112 647.5,108.5 647,105C646.5,103 646.5,100.5 645,98.5C643.5,96.5 640.5,96 638,95C635,93.5 630.5,90 628,87.5C625,83.5 624,75 620,72.5C614.5,69 603,74.5 603.5,64C604,56.5 616.5,62 620,58C624.5,53 625.5,45.5 630.5,41C634.5,37 642.5,36.5 645.5,32.5C647.5,30 646.5,26.5 647.5,23.5C650,16.5 656.5,12 663,9C667.5,7.5 671,8.5 675.5,8.5C680,8.5 684.5,7.5 688.5,8C691,8 693.5,9.5 694,12C695.5,16.5 691.5,19.5 687.5,19C680.5,18.5 670,18 663,21C660,22 658,27.5 658.5,30.5C660,35.5 669.5,35 672.5,40M210,9C216.5,5.5 220,10.5 224.5,13.5C231,17.5 238,20 243,26.5C245,29.5 245.5,34 247.5,37C250,40.5 257,37 258,43.5C258.5,50.5 252,48.5 248,51.5C246,53 246,56.5 244.5,58.5C242,63 238.5,68 234,71C231,73.5 223,74.5 222,78C221.5,79.5 222,81 223,81.5C224.5,82.5 226.5,82 228,83C231.5,84.5 235,88 237.5,91C249.5,105.5 246,128 228.5,137.5C217.5,143 202,140 193.5,131.5C190,127.5 188,122.5 185,118.5C182.5,115 172,116 175,108.5C177,104 181.5,106 184.5,103.5C186,102 186.5,99.5 187.5,97.5C190,93.5 193,89 197,86.5C199,85 208,82 208,79.5C208,76.5 202.5,75.5 200.5,74.5C195,72 190.5,66.5 186.5,61.5C179.5,51.5 181,33.5 188.5,24C192.5,19.5 197.5,18 202,15C204.5,13.5 207,10.5 210,9M428.5,40C433,47 433.5,55 434.5,63C434.5,65.5 434,71.5 431,72.5C426.5,74.5 420.5,73.5 416,73.5C414,73.5 411.5,73 409.5,74.5C407.5,76 407,80 406,82.5C404.5,85.5 402,88 399.5,90.5C389,101.5 370,103 357.5,94.5C346.5,86.5 342,74 344,61C345,57.5 348.5,54 348.5,50.5C349,46.5 344,40 339.5,41C334,42.5 331.5,54.5 331,59C328,78 335.5,98.5 353,108C358,111 364,112.5 369.5,113.5C373,114 377.5,114 380.5,116.5C382,118 381.5,120.5 382,122.5C382.5,127.5 383.5,145 374,140.5C367.5,137.5 373.5,129.5 369,126C367,124.5 364,124.5 362,124C357.5,123 353,121.5 348.5,119.5C333.5,112.5 322.5,97.5 319.5,81.5C312,44.5 338.5,9.5 377,9.5C382,9.5 387.5,9.5 392.5,11C401.5,13.5 413.5,20 420,27C423,31 424.5,37 428,40C428.5,38 427.5,37.5 426,36M557.5,43C560.5,48 561.5,54.5 562.5,60.5C565.5,83 555.5,106.5 536.5,118.5C529,123.5 520.5,126.5 511.5,128C508,129 503,129 500,126.5C497.5,123.5 498,119.5 501.5,118C505.5,116 511,116 515.5,115C520.5,113.5 525,111.5 529.5,109C551,97 558.5,63 544,42C538.5,34 529,29 520,25.5C513,23 507.5,22.5 509.5,32C511,39 520.5,39.5 525.5,43.5C535,52 537.5,64 536,76C531.5,104 489.5,111.5 475.5,87C468,74 471,53.5 483,44C486.5,40.5 494.5,39.5 497.5,36C503,29.5 495,17 501.5,11.5C505.5,8 509.5,11.5 513.5,11.5C528,12 542,22 550.5,33C553,36 556.5,39 557.5,42.5L557.5,43L554.5,39.5M958,13.5C962.5,13 972.5,13.5 976.5,17C979,19.5 976.5,26 973,26.5C970.5,27 968,25.5 965.5,25C961,24.5 955.5,24.5 951,25C948.5,25.5 945,28 942.5,26.5C939.5,24.5 938,19 941.5,17C946.5,14 952.5,14.5 958,13.5M784,18.5C809.5,13 818.5,51.5 792.5,57C768,62.5 759,23.5 784,18.5M392.5,42C391.5,32.5 373,34 366,36C363.5,37 361,38.5 358.5,38.5C355.5,38.5 350,33 349.5,30C349.5,25 362.5,23 366,22C378.5,19 394,21 404.5,29.5C408,32.5 411,37.5 414.5,40.5C418.5,44.5 420,50.5 421,55.5C421.5,57.5 422.5,60.5 420,61.5C418,62 411.5,62.5 410,60.5C406.5,58 406,52 403.5,48.5C401.5,45.5 396.5,40 392.5,42M212.5,24.5C226.5,22.5 237.5,37 234,50C231.5,58 223.5,63 216,64.5C203,66 193,51.5 196,39.5C197.5,31.5 204.5,26 212.5,24.5M550.5,33L549,35.5L549.5,36L550,36L551.5,34.5M61.5,34C82.5,30.5 95.5,57 77.5,70C75,71.5 72,72.5 69,73C45,77.5 37.5,38.5 61.5,34M956,37C970.5,35 982,50.5 977,64C974.5,71.5 967,76.5 959,77.5C947.5,79 937.5,65 938.5,54.5C939.5,45.5 947.5,38.5 956,37M393,39.5L394.5,40M672.5,40.5L675.5,41M820,44.5C821.5,43.5 824,44 825.5,44L838,44C839.5,44 842,43.5 843,45C844.5,48 836,56 834,58C830,60.5 823,53 821,50C820,48.5 818.5,46 820,44.5M648,46.5C655,44.5 663,46.5 668,52C677.5,63 672,81.5 657.5,85C633,90 623.5,51.5 648,46.5M371.5,48C380,46.5 390,50.5 394.5,58.5C400.5,70.5 391.5,85 379,87.5C355.5,91.5 347.5,53 371.5,48M500,49.5C521,46 531.5,71.5 516,85C513.5,87 510.5,88.5 507.5,89C483,93.5 475,54 500,49.5M63.5,81C77,76.5 81,98.5 68,102C55.5,105.5 51.5,84.5 63.5,81M349.5,85.5L351.5,84L350.5,87M209.5,93.5C215.5,92 224.5,92.5 229,97C238.5,107 232.5,125.5 219.5,128.5C212.5,130.5 203.5,127.5 199.5,121.5C192.5,111 197.5,96 209.5,93.5M226,124C227,122.5 227.5,122.5 229,123.5M608.5,234.5C616,230.5 619,244.5 625.5,243C629,242.5 632.5,240.5 636,239.5C640,239 644,240 648,239.5C670,238.5 685,269 674,287C671,292 666,296.5 661,299.5C658.5,301.5 652.5,302.5 651,304.5C650,306 650.5,309 650.5,310.5C650.5,315 649,323 651,327.5C651.5,329.5 653.5,329 655,328C661.5,323 671.5,321 679.5,324C685.5,326 698,339.5 689,345C685.5,347 680.5,346.5 677,346.5L651,346.5C647.5,346.5 641,347 639.5,343.5C638,340 638.5,335.5 638.5,332C638.5,326.5 638,321 638,315.5C638,312.5 639,308 637.5,305C635.5,302.5 630,301.5 627.5,300C621.5,295.5 614,288 612.5,280.5C611.5,275 611.5,268 613,262.5C613.5,259.5 616.5,256 616,253C615.5,248 609,245 606.5,241C605,238.5 606,236 608.5,234.5M232.5,270C237.5,274.5 244.5,280 247.5,286C250,291 250,299 249.5,304.5C249,311 245.5,314.5 242.5,320C240.5,323 238,326 234.5,323.5L234,323.5L233.5,324C235.5,331.5 226,328.5 224,333C221,339.5 223,349.5 222.5,356C222,360.5 219.5,364.5 214.5,362.5C211,361.5 211.5,357.5 211.5,354.5C211.5,349 212.5,338.5 210,333.5C209,331 205,330.5 202.5,329C198,326.5 194,322.5 190.5,319C179,306.5 182.5,286.5 194.5,276C197.5,273 201.5,271 205,268.5C206.5,267.5 209,267.5 210,266C211.5,264.5 211,262 211,260C212,253.5 211,247 212,240.5C212.5,236.5 215,232.5 219.5,235C222,236.5 222,240.5 222.5,243C223.5,250 221.5,258.5 223.5,265.5C224,267.5 230,270.5 231.5,271.5L232.5,270.5L232.5,270L232,269.5L230,269.5M498.5,242.5C502,241 505,243.5 506,246.5C507.5,251.5 505.5,258.5 508,263.5C509,265.5 515,267.5 517.5,268.5C521.5,270.5 524.5,274 527,277C528.5,278.5 530,282.5 532,283C534,283.5 535.5,281.5 537,280.5C541,278 544.5,275 548,271.5C549.5,270 553,267.5 555,269.5C558,271.5 556.5,276.5 555,278.5C551.5,283 547,287 543,291C541.5,292.5 539,294.5 539.5,297C540,303 549.5,310 553.5,314C555.5,316 558.5,318.5 557,322C554.5,328 547,322 544.5,320C541.5,317 537.5,310.5 533,310.5C530.5,310.5 529,314.5 528,316C525,320 520.5,324 516,326.5C513.5,327.5 508.5,328 507.5,330.5C505,336.5 510.5,350 502.5,353C499.5,354 496,352.5 495.5,349C495,344.5 497,333.5 493.5,330C491,328 487.5,327.5 485,326.5C481.5,324.5 477.5,320.5 474.5,317.5C465,306.5 466.5,286.5 475.5,276.5C479,272.5 483.5,268.5 488,266C490,265 492.5,265.5 494,264C498,259 491,245.5 498.5,242.5M1001,242.5C1008,240 1008,256.5 1007.5,260.5C1004,280.5 1003.5,301.5 1001,322C1000.5,327 1000.5,332 1000,337C1000,339 999.5,342 997.5,343C994.5,344.5 990.5,341.5 988.5,339.5C983.5,334.5 977.5,326.5 971,323.5C966.5,321.5 960.5,327 956,328C943,330 929.5,323 922.5,312C918.5,305 917.5,295.5 919.5,288C920,285 922.5,281.5 922.5,278C922,275 917.5,268.5 914,269C912,269 912,271.5 912,273C911.5,277.5 910.5,282.5 910.5,287C910,302.5 908.5,319 906.5,334.5C905.5,339 906.5,348 900,348.5C891,349 894.5,333 895,328C897,308 898.5,288 900.5,268C901,263.5 900.5,250.5 905,248C908,246.5 911.5,249 913.5,251C918.5,255.5 922.5,263.5 928.5,266.5C932.5,268.5 938.5,264.5 942,263.5C948.5,262 959,262 965,265.5C976.5,271.5 984.5,283 983.5,297C983,302 979.5,307.5 980,312.5C980,315.5 986,321 989,321C991.5,320.5 990.5,317 990.5,315.5C990.5,313 991.5,311.5 992,309C992,306.5 991.5,304.5 991.5,302C992.5,287 995,272.5 996,257.5C996,253 995.5,244 1001,242.5M401,244C404.5,243 408,246 407.5,249.5C406.5,254.5 399,255.5 398,261C397.5,265 399.5,269 400.5,272.5C401.5,277 401.5,282.5 401.5,287C401,296 394.5,304.5 387,309C384.5,311 377.5,312 376,314.5C374.5,317.5 375.5,322.5 375.5,325.5C374.5,339 376.5,360 358.5,362.5C345.5,364.5 325.5,355 331,338.5C332,335 336.5,333.5 339,336.5C342,340 341.5,346 345,349.5C349,354 359,350 361.5,345C364,338.5 363,329.5 363,322.5C363,320 363.5,316 361.5,314.5C359,311.5 353.5,310.5 350,308.5C344,305 340,299 337.5,292.5C330.5,275 343.5,251.5 362.5,249.5C367.5,249 373,249 378,250.5C381,251 385,254 388.5,253.5C394,253 395.5,245 401,244M785.5,245.5C795,244.5 805.5,246 814.5,249.5C818.5,251.5 824.5,256.5 829,256.5C834,257 840.5,245 845.5,252C850,258 839.5,262 839.5,267C839,272.5 845.5,278 847.5,283C853,296 853.5,312.5 846.5,325C844.5,328.5 842.5,336 837.5,336C834.5,336 832.5,333 832.5,330C833,324.5 837,319 838,313.5C841.5,293 835.5,275.5 817,264.5C813,262 805,256.5 799.5,258C796.5,259 798,269 800,270.5C808,276.5 817,279.5 822.5,288.5C832.5,306.5 820,331.5 800.5,335.5C779.5,339.5 760.5,324.5 760.5,303C760.5,299 760.5,295.5 762,291.5C764.5,286 768.5,280.5 773.5,277C777,275 783.5,273 786,270C788,267.5 788,257.5 783.5,258C777,258.5 772,261.5 767,265.5C752.5,276 747.5,289.5 747.5,307C747.5,315 751.5,321.5 752.5,329C753,332 752.5,336 748.5,336C742.5,336.5 739.5,326 737.5,321.5C733.5,310 733.5,295.5 738,284C740,279 745.5,273.5 746.5,268C747.5,262.5 736.5,258.5 740,252C744.5,245 752.5,257 756.5,257C760,256.5 764,252.5 767,251C773,248 779,246.5 785.5,245.5M34,316.5L36,320L36.5,320C36,316 32.5,312 28.5,311.5C25,311 20,310.5 20.5,315.5C22.5,326.5 30.5,338 39.5,344.5C41.5,346 44,346 46,347.5C49,349.5 59.5,353 56.5,358.5C55,360.5 51,360.5 49,360.5C42,360.5 34,355 28.5,350.5C11.5,337 4.5,314 8,293C11,277.5 23.5,262 37,254.5C41,252 54.5,244 57,252.5C58.5,258.5 50,261.5 45.5,263.5C35.5,268.5 25,277.5 22,288.5C21.5,291 19.5,296 21,298.5C21.5,300 25,299.5 26.5,299.5C32.5,299.5 32,298 35,293.5C36,292 38,291 38.5,289C36.5,289 36,290 36,292M37.5,288.5C41,284 45,279 49.5,276C61,269 76.5,271.5 86,280C89,283 92.5,286.5 95,290C98.5,295.5 100.5,303 109,299C113.5,297 108,286.5 106.5,283.5C102.5,276 97,270 89.5,265.5C86,263.5 81.5,262.5 78,259.5C75,257.5 72.5,252.5 76.5,250C79.5,248 83.5,249 86.5,250.5C94,253.5 101,258 107,263.5C128,283 129,317.5 113,340C107,348 98,355 89,359C85.5,360 80.5,362 77,360C73.5,358 75.5,354 78,352C81,349.5 84.5,349 87.5,347C95.5,342 101.5,335 106,327C108,324 114.5,312 107.5,311.5C105,311.5 101.5,311 99.5,312C96,314 94.5,319.5 92.5,323C91,325.5 88.5,328 86,330C75.5,339 60,342 48,333C43,329.5 40,324.5 36.5,320M642,251.5C657,249.5 668.5,266 662.5,279.5C660,286 653,290 646.5,291.5C633.5,293.5 622.5,280 624.5,267.5C626,259 634,253 642,251.5M366,261.5C392,257.5 397.5,297.5 371.5,301.5C347,305 341,265.5 366,261.5M490,266.5L487.5,268.5M946,276C955,274.5 965,278.5 969,287C974.5,298.5 967,312.5 955,315C948,316 941,314.5 936,309C927.5,298.5 931,279 946,276M496,278C499.5,277 504.5,277 507.5,278C526.5,284.5 524,312.5 505,316.5C481,321.5 471.5,283 496,278M541.5,279C540.5,281 540,281 538,280M209.5,281C217.5,279 226.5,280.5 232,286.5C241.5,297.5 235.5,315.5 221.5,319C210.5,321.5 199.5,314 197.5,303C195.5,294.5 200.5,283 209.5,281M788,284.5C813.5,279 822.5,317.5 797,323C772.5,328 763,289.5 788,284.5M61.5,285.5C82.5,282 94,308.5 77,321.5C74.5,323.5 71.5,324.5 68,325C44,329.5 37.5,290 61.5,285.5M236,325.5L235,326.5M655,447C664,444 664.5,463.5 660.5,468.5C658,471.5 654.5,469.5 651.5,469C647.5,468.5 642,470 638.5,471.5C632.5,474 624,480 620.5,485C618,488.5 624.5,494 628,494C633.5,494 636.5,487.5 641,485C653.5,479 667,480 678,489C685,494 688,501.5 689.5,510C689.5,513.5 689,517.5 690.5,520.5C693.5,527.5 707.5,528.5 708.5,537C709,541.5 704.5,546 701.5,549.5C696,556.5 689,563 681,566.5C676,568.5 670,569 665.5,571C661.5,573.5 663.5,580 658,581C648.5,582 651,569 652.5,564C652.5,562.5 653,559.5 654.5,558.5C657.5,556 661,559.5 664.5,559C673,558.5 682.5,553.5 688.5,547.5C691,545 694.5,542 693.5,538.5C692.5,536 686.5,532.5 684,533.5C680.5,535 677.5,539.5 674,541.5C668,545.5 663,545.5 656.5,545.5C653,545.5 649.5,546.5 646,545C636.5,540 628,533 625.5,522C624,517 625.5,511.5 623.5,507C621,499.5 607,499.5 605.5,490.5C605,485 610.5,479.5 614,476C620,470 625.5,464.5 633,461C638,459 644,458.5 648.5,456C652,454 650.5,448 655,447M18.5,464C22.5,460.5 26.5,456.5 31,454C44,446 61.5,445 76,449C114.5,460 130.5,509.5 106,541C89,563.5 57,570.5 32.5,557.5C25.5,554 19,547 14,541C10,536.5 6.5,532 4.5,526C-2.5,507 1.5,489.5 11,472.5C12.5,470 15.5,468.5 17,466L17.5,465.5L19.5,467C19.5,465.5 19,465 17.5,465M50.5,459.5C61,458 73,459.5 82.5,464C101,473.5 108,495 105.5,514.5C103,528.5 95.5,539 83.5,545.5C79.5,548 73.5,552 68,551C65,550 65,539.5 67,538C69.5,535.5 73.5,535 76.5,533C82,529.5 86.5,524 89.5,518.5C92,514.5 91,510 91,506C91,502 91.5,498 90.5,494C88.5,485.5 80.5,478 72.5,475C47.5,465.5 20,487 27.5,514C30,522.5 35,529 42.5,533.5C45,535 49.5,536 51.5,538C54,540 54,551 50,551C45,551 39.5,548 35.5,545.5C23.5,539 17.5,530 15,517C9,492 23,464 50.5,459.5M201,528C199,534.5 200.5,539 200.5,545.5C200.5,552.5 200.5,559.5 200,566.5C200,571 197.5,578.5 191.5,575.5C188.5,574 189,570.5 189,567.5C189,561.5 188.5,555.5 188.5,549.5C188.5,531.5 189,513.5 189,495.5C189,491 194,485 193,481C191.5,476.5 186,474.5 184,470.5C182.5,467 183.5,462.5 188,462.5C194,463 196,471 201.5,472C205.5,472.5 210,469 214,468.5C223.5,466.5 237.5,469 244.5,476.5C257.5,492 257.5,520 236.5,529.5C224,535.5 213.5,532.5 201,528M761.5,466C769,464 779,465.5 786.5,466C796.5,466.5 806,465.5 816,465.5C821,465.5 831.5,465 829,473C828,476 825,476.5 822,477C816,477.5 810,475.5 804,477.5C802,478 798.5,477.5 798,480C797,485 798.5,490.5 798.5,495.5C798.5,498 798,501 799,503.5C801,507 807.5,508.5 810.5,510.5C815,513 818.5,517.5 822,521.5C824,524.5 824,528.5 824.5,531.5C827,547 818.5,564 802.5,568C787,571.5 774.5,568 765.5,555C764,552.5 762,550.5 761,548C759.5,544 760.5,540.5 760.5,536.5C760.5,532.5 759.5,529 761.5,525C764.5,518 771,511.5 777,507.5C779,506 784.5,505.5 785.5,503.5C788,499 786.5,490.5 786.5,485.5C786.5,483.5 787,481 786,479.5C785.5,477.5 781,477 779,477C773,477 766,479 760.5,476C755,473 755,467.5 761.5,466M342,469C362.5,464.5 381.5,479.5 382.5,500.5C382.5,505 381.5,510 380,514C379,516.5 377,519 378.5,521.5C381,525 385.5,528 388.5,531C389.5,532 391.5,533.5 393,533.5C398,533 403,523.5 408,530.5C412,536 404.5,539 403.5,543.5C402.5,548 415,556.5 404.5,559C400,560.5 396,555 393.5,552.5C386,545 379,536 370,530.5C366.5,528 360.5,532 357,533C350,535 342.5,534 336,531C312,520 311,487.5 332.5,473.5C335.5,472 338.5,469.5 342,469M508,468.5C524.5,466 545.5,476 546.5,494.5C546.5,499.5 546.5,505 545.5,510C544.5,513 542,516.5 543,519.5C544,526 559,533 555,540C549.5,549 540,532.5 535.5,530C531.5,528 527,531.5 523,532.5C516.5,534 510.5,533.5 504,532C502,531 496,528 494.5,529.5C492.5,530.5 493,537 493,539C492.5,548 492.5,557.5 492.5,566.5C492.5,570 492,575.5 487.5,576C484,577 482,573 481.5,570C480.5,562 482,553.5 481.5,545.5C481,538 481.5,531 481.5,523.5C481.5,510 479,493 487,481.5C489.5,478 493,476 496,473.5C500,470.5 503,469.5 508,468.5M951,469.5C955.5,468 958.5,473 962,475C973,480 983,487.5 984.5,500.5C985,506 984.5,512 983.5,517.5C983,520 980.5,523.5 981,526C981.5,528.5 985.5,531.5 987.5,533C992,536 994,530 995,526.5C996.5,520.5 997.5,510.5 1000.5,505.5C1002.5,502.5 1005.5,501.5 1008.5,502.5C1011,503 1010.5,506 1010.5,508C1010.5,513.5 1011.5,519 1009,524C1007.5,528 1006.5,532 1004.5,536C997.5,547.5 984.5,558.5 972,562.5C944,571.5 913,559.5 900,533C896.5,526.5 893.5,518.5 893.5,511C893.5,508.5 893,505.5 894.5,503.5C896.5,500.5 903,501.5 904.5,505C907,512.5 907.5,520.5 910.5,528C912,531 915,535.5 918.5,533C927,526.5 922,521.5 920.5,514C919.5,510 919.5,505 920,501C921,487 933.5,480 944.5,474.5C947,473 948,470 951,469.5M539.5,480L538,482.5L538.5,483L539,483L540.5,481.5M216,481C220,480.5 226,480.5 230,482C247.5,491 242.5,517 224,520C200.5,524.5 192.5,485.5 216,481M510.5,481C519.5,479.5 529.5,484.5 533,493.5C537,504 530.5,518 519,520C514.5,521 509,521 505,518.5C489,510 492.5,484.5 510.5,481M345,481.5C354,480 363.5,484 368,492.5C373.5,504 366,518.5 353.5,520.5C329.5,525 320.5,486.5 345,481.5M56.5,485.5C68,483.5 79.5,494 79.5,506C79,516 71.5,523.5 62,525.5C50,527.5 38.5,516 39.5,504C40,495 47.5,487.5 56.5,485.5M950,486.5C974.5,482.5 981,522 956.5,526C935.5,530 924,502.5 941.5,490C944,488.5 947,487.5 950,486.5M652.5,494.5C655.5,494 660.5,494 663.5,495C683,501.5 680.5,530 660.5,533.5C636.5,538 628,499.5 652.5,494.5M774.5,510L775.5,512L773,511M787.5,517C796.5,515.5 806.5,519.5 810.5,528C816,539.5 808,554 796,556.5C772,560.5 763,521.5 787.5,517M933,535C935.5,534 943.5,537.5 945,539.5C946,540.5 946,543 946,544.5C946.5,547 947,550.5 944.5,552C942,553 937.5,550.5 935.5,550C932,548.5 923,546.5 927,541C928,540 929,539 930,538C931,537 931.5,535.5 933,535M969,535.5C973,534.5 980.5,541 978.5,545.5C978,547.5 970,551 968,551.5C966,551.5 961,553 959,552C956,551 957.5,542 959,539.5C960.5,537.5 966.5,536 969,535.5M804,660.5C812,659.5 820,661 826.5,665.5C839.5,674.5 843,694.5 834.5,708C831,713 826.5,717 821,719C818.5,720.5 814,721.5 813.5,724.5C813.5,728 817.5,728 820,729C824.5,731 829.5,736 832.5,739.5C845.5,755 837,779.5 820,786.5C817.5,787.5 816,789.5 813.5,790C810,790.5 804,791 800.5,789.5C781,783 769.5,762 779.5,742.5C782.5,736.5 789,732 794.5,729C796,728 798.5,728.5 799.5,727C803.5,723 799.5,716 803,713C807,709.5 813.5,710 818,707C829,699.5 828,683.5 818.5,675C814,671 806.5,674 801.5,670.5C797,667.5 798.5,660.5 804,660.5M956.5,660.5C963.5,658.5 964,668.5 964,673.5C964,688 962.5,701.5 964,716C964,719 963.5,722 964,725C965,727 967.5,728 969.5,729C974,731.5 979.5,734.5 982.5,738.5C996.5,757 986,784.5 963.5,790C958,791 952.5,790 947.5,788C928.5,780.5 920.5,759 931,741C933.5,736.5 937.5,733 942,730C944.5,729 948.5,728.5 950,726.5C951.5,724.5 952,720.5 952,718C952,714.5 951,711.5 951,708C951,697 951.5,685.5 951.5,674.5C951.5,669.5 950.5,661.5 956.5,660.5M49,664C57.5,663 67,664.5 75,667.5C79,669.5 84.5,673.5 88.5,674C92.5,674 97.5,668 101.5,666.5C105,665.5 111.5,665 112,670C112.5,678 100.5,679 97,684C93,689.5 96,697.5 93,703.5C90.5,707.5 88.5,712.5 85,716C82.5,718 77,720 75.5,723C74.5,725 77,726.5 78,728C80,730.5 83.5,735.5 84.5,738.5C91,759 81,780.5 58.5,783.5C35.5,786 17,766 22.5,743C23,739 25,734.5 27.5,731.5C29.5,729.5 33,727.5 32.5,724.5C31.5,721 27,719 24.5,717C21,713.5 18,708.5 15.5,704C14,700.5 13,697 13,693.5C13,689 13,685 14.5,681C20.5,668.5 37,666 49,664M203,674C209,672 209,678.5 209.5,682.5C210.5,689.5 210,696.5 210,703.5C210,706 209.5,710 210.5,712.5C211.5,715 214.5,715.5 216.5,716.5C219.5,718 223,720 226,722C228,724 229.5,726.5 232,727.5C234.5,728.5 237,725.5 239,724C245.5,718 246,710 248.5,702C249.5,698.5 252,694.5 256,697C263,701 259.5,715 255.5,720.5C252.5,725 249,729 245,733C243,735 239.5,736.5 238,739C235.5,743.5 237,749.5 236,754.5C233.5,767.5 224.5,776 211.5,779.5C209,780.5 207,779.5 204.5,779.5C190.5,779.5 178,771.5 174,757.5C172,752 174,743 170.5,738C168.5,735 164,734 161.5,731.5C155.5,725 145.5,709 150.5,699.5C153.5,693.5 159.5,696.5 161,701.5C162.5,706.5 163.5,712 165,717C166.5,720.5 174,729.5 178,727.5C179.5,727 180.5,725 181.5,723.5C183.5,721.5 186.5,720 189,718.5C191.5,716.5 196.5,716.5 198,714C199,711.5 198.5,708 198.5,705.5L198.5,687.5C198.5,683.5 198,675 203,674M636,673.5C638.5,673.5 643,673 645.5,674C651.5,676 656.5,684.5 661,689C676,704 696,719.5 687.5,743C684.5,750 679,756 672.5,759.5C670,761 662.5,762 662,765.5C662,767.5 664.5,769.5 666,771C668.5,773.5 672,775.5 675.5,776.5C678.5,777.5 682.5,777 685,779C690,782.5 685,789 680.5,790C669.5,792.5 662,782 655,775C640.5,760.5 618,744 626,720C628.5,712.5 634,706.5 640.5,702.5C642.5,701.5 650,699.5 650.5,697C650.5,695 648,692.5 646.5,691C644,689 641.5,686 638.5,685C635.5,684 632,685 629,683C626,681 625,676.5 628.5,674.5C630.5,673.5 633.5,674 636,673.5M529.5,739.5C526,741.5 521.5,745 518,742L517.5,742.5C519,752 514.5,763.5 518.5,773C521,778 532.5,778.5 530.5,785.5C527,797 516,784 510.5,784.5C505.5,785 497,796 492.5,787C488.5,779 502,778 505,773C506,771 505.5,768 505.5,765.5C505.5,759.5 506,753.5 505,748C504.5,744.5 498,742.5 495,740.5C488.5,737 484.5,733 481.5,726C479,719.5 478.5,712 480,705.5C480.5,702.5 483,699 483,695.5C482.5,691 476,688 474,684C473,681 473.5,677.5 476.5,676C483.5,672.5 487,684 492.5,685.5C496,686 500.5,682 504,681C509.5,680 515.5,680 521,681.5C524,682 528.5,684.5 531.5,683.5C536,682.5 542,670.5 548,676C554.5,683 540.5,689 540,694.5C539.5,698 542.5,703 543,706.5C545,717.5 541.5,735 529.5,739.5L528.5,737L529,736.5L531.5,738.5M44.5,677C55.5,675.5 74.5,676 82,685.5C85,689 83,693.5 82,697C81,700 80,704 78,706.5C74,711 64.5,714.5 58.5,715.5C47.5,717 36,712.5 28.5,704C22,696 24,684.5 33.5,680C37,678.5 40.5,678 44.5,677M317.5,692.5C320,691 323,693 325,694.5C329,698 333.5,704 338.5,706C341.5,707 346,703.5 349,703C355,701.5 361.5,701.5 367.5,703C371,704 375,707.5 378.5,706C384,703.5 393.5,686.5 400.5,695C402.5,698 399.5,700.5 398,702C394.5,705.5 387.5,710.5 387,715.5C386.5,718.5 388.5,721.5 389.5,724.5C390.5,729.5 390.5,735.5 390.5,740.5C390,744.5 386,751 387,754.5C388.5,760.5 396.5,765 400,769.5C402,772.5 400.5,776 397.5,777.5C395,778.5 392.5,776 391,774.5C387.5,771.5 383,765 378.5,763.5C375,762 370.5,765 367.5,766C362,767.5 356.5,767.5 351,766.5C348,765.5 342,762 339,763C333.5,765 329,771.5 324.5,775C322,777 318.5,778 316,775.5C314,772.5 316,770 317.5,767.5C321,763.5 328.5,759.5 329.5,754C330,751 327.5,747.5 326.5,744.5C325.5,740 325,734.5 325.5,729.5C326.5,725.5 331,718.5 329.5,714.5C327.5,709 319.5,705 316.5,700C315,698 314.5,693.5 317.5,692.5M509.5,693C520.5,691.5 531.5,702 531.5,713C531,723.5 522.5,732 512,733.5C499.5,734.5 490,721 491.5,709.5C493,701 501,694.5 509.5,693M653.5,711.5C678,706 686.5,745 661.5,750.5C636.5,756 628,716.5 653.5,711.5M353.5,715C356.5,714.5 361,714.5 364,715.5C384,722 381,750.5 361,754.5C337.5,758.5 329.5,719.5 353.5,715M200.5,728C209.5,726.5 219.5,730.5 223.5,739.5C228.5,751 220.5,764.5 208.5,767C184,771.5 176,732.5 200.5,728M50,731C75.5,726.5 83.5,766 57.5,770.5C33,775 25.5,736 50,731M520.5,744L518.5,745M790,756.5C792,754.5 800,756 803,756L818.5,756C820.5,756 823,755.5 825,756.5C826.5,757 826,759.5 825.5,761C825,765.5 822.5,769 819,772C812,778 801.5,777.5 794.5,771C792.5,769 786,759.5 790,756.5M940,756.5C942,754.5 949.5,756 952.5,756L970,756C971.5,756 975,755.5 976,757C978,759 975,764.5 974,766.5C973,768.5 972,770 970.5,771.5C963,777.5 953,778.5 945.5,771.5C943.5,769.5 936,759.5 940,756.5M826,783.5L824.5,781L825,780.5L827.5,782.5" style="fill:none;fill-rule:nonzero;stroke:rgb(58,54,54);stroke-width:1px;"/>
            </g>
            <g transform="matrix(0.883214,0,0,1.3829,-40.1838,102.954)">
                <path d="M770,44.5L778.5,50L776,53C783.5,60 803,59 805,46.5C800,47 796,50.5 791,51.5C785.5,52.5 781,49.5 777,53.5M805.5,46L805,46.5M774,48.5L775.5,53M779,50L779.5,50.5M198,53.5L206,62.5C210,58 215,60.5 220.5,58.5C224.5,56.5 227.5,53 231.5,52L232,52.5C231.5,56 229.5,56 227,57.5L226.5,57L229,54.5L229.5,55L228,56.5M229,57.5C224,64 214,66 206.5,62.5M204.5,58.5L208.5,58.5M48,59.5C50,64 60,75 65,72L71,73L71.5,72.5L68.5,69L69,68.5L73.5,72L74,72L74.5,71.5L71,68M82.5,62.5L76,71L72,68M79,68C77,65 78,64 81.5,63.5M940.5,64.5C945,70 955.5,72.5 962.5,70.5C967,69 970.5,66 975,65.5C974,78.5 948.5,82.5 945,69M975.5,65L975,65.5M75.5,66.5L76,68.5L75.5,69L74,67.5L77,65.5M971,67L974,70M76.5,67.5L78,69M59,70C61.5,69 63,69 65,70.5L68.5,69M76,69L77,70M949.5,69.5L948,71L948,71.5L950.5,70M633.5,70C638.5,76.5 645.5,80 654,79.5C659.5,79 663.5,74 668,78L668.5,78L669.5,74.5L665.5,75M65,70.5L65,72M948.5,72L947.5,73M71.5,72.5L73,72M484.5,74C486,76 487,78.5 489,80C494,83 503,84 508.5,82.5C511.5,82 515.5,78 518.5,78.5C521,78.5 519,81.5 518.5,82.5L516,79.5M670,74L669.5,74.5M358.5,75C363,81 374.5,82.5 381.5,80.5C385,79.5 388,77.5 392,77C388.5,88.5 365.5,92.5 362,79M393.5,75L392,77M640,78C644,91 662,84.5 668.5,78M387.5,78.5L388,80M366.5,79.5L363.5,82.5M367.5,80L364,83.5M389,80.5L390,81.5M490,81C493,94.5 511.5,88.5 518.5,83M494.5,81.5L493,83L493,83.5L495.5,82M493.5,84L492.5,85M626,278.5C631.5,284.5 642,287 649.5,284.5C653.5,283.5 656.5,280.5 660.5,280L659,284.5L656.5,281.5M661,279.5L660.5,280M630.5,283L632,286.5L635,283.5M659,285C650.5,292 641,294 632,287M350.5,288C357,296 361,303 372.5,301C376,300.5 386.5,296 385,291C384.5,289 381,291.5 380,292C376,294 372.5,295.5 368,295.5C363.5,295.5 360.5,293 357,296.5M381.5,291.5L382,293M355.5,293L359.5,294M383,293.5L384,294.5M481.5,302.5L490,313C494,309 499,312 504,311C509,309.5 512.5,306 517.5,305.5C513.5,317.5 499.5,320 490,313.5M967,304L967.5,304.5C964.5,318 942,319 936.5,307L951.5,309.5L967,304M934,304.5L936.5,306.5M518,305L517.5,305.5M198.5,306.5C207,317 225.5,314 235,306.5M816,306.5L805,313.5L806,314.5L806.5,314M941.5,307.5L938.5,310.5M233,308.5C230.5,320 207,324.5 203.5,311.5M488.5,309L492.5,310M229,309.5L229.5,311M774,310C783,320 794,317.5 805,313.5M47,311.5L55,317L54,318.5L53.5,318M230.5,311.5L231.5,312.5M208,312L205,315M809.5,312C807,324 781,329 778.5,314.5M209,312.5L205.5,316M79,316.5L77.5,316C82,311.5 81.5,317 79,320C78,319 76.5,317.5 75,317.5C72.5,317 69.5,319 67,319.5C61.5,320 57.5,316.5 53,321L50.5,315.5M805.5,315L806,315.5M807,315L808,316M783,315.5L780,318.5M76,316.5L77.5,316M784,316L780.5,319.5M55.5,317L56,317.5M78,317.5L78.5,318M78.5,320C71.5,326.5 61,327 53.5,321M330,505.5C333,509.5 336.5,516 340.5,518.5C350,525 362.5,519.5 366.5,510C362.5,510 359.5,513 356,514C350,516.5 343.5,512.5 339,517M203.5,508.5L209.5,516C213.5,512 216,514.5 221,514.5C225,514.5 228.5,513 232,511C233,510.5 237,507.5 237.5,509.5C238.5,512.5 234,516 232,517.5C225,521.5 216.5,521.5 209.5,516.5M496,508.5C501,513.5 511.5,516.5 518.5,514.5C520.5,514 528.5,508 530,510.5C531.5,513 525.5,517.5 523.5,518.5C516.5,522.5 501,521 499.5,511.5M367,509L366.5,509.5M362,511.5L364.5,514M208,512.5L212,513M41.5,512.5C46,519.5 58.5,521 65.5,518.5C69.5,517 72.5,514 76.5,513.5L75,518L72.5,515M77.5,512.5L76.5,513.5M504,512.5L501,515.5M337.5,513L341,513.5M505,513L501.5,516.5M934.5,513.5C939,520.5 950.5,522 958,519.5C961.5,518.5 964.5,516 968.5,515C969.5,519 966,521.5 963,523.5C956.5,528 941,528.5 939,518.5M45,516.5L46.5,520.5L49.5,517.5M965,516.5L965.5,518M50.5,518L46.5,521M75,518.5C66.5,525 57,528.5 47.5,521.5M966.5,518.5L967.5,519.5M943.5,519L940.5,522M639,521.5C644.5,527.5 655.5,530 663.5,527C666,526 669,522.5 672,522.5C674.5,522.5 673,525.5 672.5,526.5L669.5,524M671,524.5L671.5,525M643.5,526L644.5,529.5L648,526.5M672.5,527C665,534 654.5,536.5 645.5,530M774.5,543.5C776.5,546.5 778.5,547.5 782,548.5C785,549.5 788,551 791,551C797.5,551 802.5,547 808.5,545C808,559 780,561 778,547.5M804.5,547L805,548.5M782.5,548.5L779.5,551.5M783.5,549L780,552.5M806,549L807,550M494,721.5L501,725L500,726.5L499.5,726M501.5,725C512,730.5 518,724 527.5,721.5C528,726 523.5,729 520,731C512.5,734.5 499,734 496.5,724M524,723L524.5,724.5M525.5,725L526.5,726M670,746C666.5,742 669,740.5 673,739.5C673.5,743 671,745 668.5,747C662.5,751.5 654.5,752 648,748.5C644,746.5 643,743 640,740M669.5,741L670,742.5M340.5,741.5C345,748.5 357,750 364.5,747C368,746 371,743 375,742.5C374,755 348,760 344.5,746.5M643,741.5C651.5,743.5 658,747.5 666.5,742.5M375.5,742L375,742.5M647,742.5L644,745.5M648,743L644.5,746.5M671,743L672,744M371,744L374,747M349,747L346,750M185.5,753C193,761.5 206.5,764.5 216.5,757.5L219.5,760.5L220,760.5L221,756.5L217,757.5M222.5,755L221,756.5M36,758.5C38.5,761 40.5,765.5 43.5,767.5C51,773 66.5,771.5 70.5,762C71.5,759 68.5,759.5 67,760.5L68.5,762L67.5,762M190.5,759L192,762.5L195,759.5M196,760L192,763M42,766C46,762 49,765.5 54,765.5C59,765 62.5,762 67,760.5M220,760.5C213,767.5 201.5,770.5 193,763.5M40.5,762.5L44.5,763.5M68.5,762.5L69.5,763.5M790.5,764.5C793,767.5 795.5,772 798.5,774C807,779.5 818.5,775 822.5,766.5L809.5,770.5L795.5,769M941.5,765C944,768.5 946.5,769.5 950.5,769.5L951,770L948,773L946.5,770M969.5,768.5L968,768L972,766C972.5,769.5 970,772 967,773.5C961,777 954,777.5 948,773.5M818,767.5L818.5,769M951,770C957.5,771.5 961.5,770 968,768M819.5,769.5L820.5,770.5M968.5,769.5L969,770M970,769.5L971,770.5" style="fill:none;fill-rule:nonzero;stroke:rgb(217,215,215);stroke-opacity:0.5;stroke-width:1px;"/>
            </g>
            <g transform="matrix(0.883214,0,0,1.3829,-40.1838,102.954)">
                <path d="M784,18.5C794.5,16 806,23 808,34C808.5,36.5 809,40.5 808,43C807,44.5 804.5,45 803,46C799,48.5 795,51 790.5,52C783,53.5 770.5,47.5 768.5,39.5C766.5,30.5 775.5,20 784,18.5M210.5,25C223,23 240,34.5 234,48.5C233,51 229,52.5 227,54C224.5,56 222,58 218.5,59C210,61 199.5,57 196,48.5C192.5,38.5 201,27 210.5,25M784,36.5C784,35.5 784.5,35 785,34C788.5,27.5 792.5,39.5 786,38C785,37.5 784.5,37 783.5,36.5C781.5,41 785.5,45.5 790,44C796.5,42.5 797,33 790,32M61.5,34C74.5,32 92,44.5 85,59C84.5,61 82,61 80.5,62C76,65 72.5,68 67,69C58,71 47.5,62 46.5,53C45.5,44.5 53.5,35.5 61.5,34M955.5,37C967,35 983,48 978,61C977,63 975,64 973,65C969,67.5 965,70.5 960,71C952.5,72.5 940,67 938.5,58.5C937,48.5 946,39 955.5,37M215,38.5C223.5,37.5 223.5,50 215.5,51C207,52 207,39.5 215,38.5M214.5,39C217,44 213.5,45.5 210,42M648,46.5C661,43.5 679.5,56 672,71C670,74.5 659.5,78.5 655.5,79C647,81 636,76 634,67C631.5,58 639.5,48 648,46.5M65,48.5C68.5,47.5 69,53 66,53.5C63,54.5 61.5,49 65,48.5M68,48C76,49.5 74,60 66.5,60.5C61.5,60.5 57.5,54.5 61.5,51M371.5,48.5C383,46 394,53 395.5,64.5C396,66.5 396.5,70 395.5,72C395,73.5 393,74 391.5,75C387.5,77.5 384.5,80 379.5,81C371.5,82.5 360,79 357,71C353,61.5 362.5,50 371.5,48.5M501,49.5C513.5,47.5 530,61.5 523,74.5C522,76.5 520,77 518,78C514,80 510.5,82.5 505.5,83.5C488,86 477,65 491.5,54C494.5,51.5 497.5,50.5 501,49.5M954.5,54.5C955.5,53 958,50.5 959.5,53C962,58 953,54.5 952.5,58C952,69.5 972.5,60 963,53C962,52.5 961,52 960,52M648,63.5C649,62 652.5,58 654.5,61C658,67.5 647,63.5 646.5,65.5C644,78 668,68.5 658,61C657,60.5 656,60 655,60M371.5,65C377.5,58.5 380.5,68 373.5,68C373,66.5 370.5,64 370,67C369.5,68.5 370.5,70 371,71C377.5,81 389,64 378,62M502,69C505,69 506,66.5 504.5,64L505,63.5C514,65 511.5,76.5 503,75.5C497.5,74.5 496.5,65.5 501.5,69L498.5,72M499.5,66.5C501,64.5 502,64 504.5,64M650,65.5L647.5,68M373.5,68L372,68.5M639.5,252.5C650.5,250 662,256.5 663.5,268C664,270.5 664.5,274 663.5,276.5C661,280 652,284 648,285C640.5,286.5 629.5,283.5 625.5,276.5C620.5,266.5 630,254.5 639.5,252.5M364,262.5C375,260 386.5,266.5 388.5,278C389,280.5 389.5,284.5 388,287C386,290 377.5,294 374,294.5C365.5,296.5 354.5,294 350.5,285.5C345.5,276.5 355,264 364,262.5M640.5,270C641,266 647,265 645.5,269.5C644.5,274.5 641,269 639,271C636,273.5 642.5,278.5 645,278C651.5,277 653,267 646,266M642.5,272.5L641,274.5L641,273.5M364,279.5C365,278 368.5,274 370.5,277C374,283.5 363,279.5 362.5,281.5C360,294 384,284.5 374,277C373,276.5 372,276 371,276M946,276C956.5,274 968.5,280 970.5,291.5C971,294.5 971.5,299 969.5,301.5C968.5,302.5 966.5,303 965,304C961,306 957.5,308.5 953,309C947,310.5 935.5,307.5 932.5,301.5C927,292 936.5,278 946,276M499,277C511,275.5 525.5,289 520,301.5C519,303.5 517,304 515,305C510.5,308 507,310.5 501.5,311.5C491,312.5 480,303.5 481.5,292.5C483,284 491,278.5 499,277M214.5,279.5C226,278 241.5,291 236,303.5C234,308.5 223.5,312.5 218.5,313.5C210.5,314.5 199.5,310.5 197.5,302C194,291 204.5,281 214.5,279.5M366,281.5L363.5,284M788,284.5C800,281.5 819.5,294 812,308C809.5,312 800.5,316 796,317C788.5,318.5 778,316 774,308.5C769,299 778.5,286.5 788,284.5M61.5,285.5C73.5,283.5 85,292 85.5,304.5C85.5,307 85.5,310.5 84,313C82.5,314.5 81,313 79.5,314C76,315.5 73.5,318 69.5,319C61.5,320.5 50.5,317.5 46.5,309.5C42,300 52.5,287.5 61.5,285.5M946.5,293.5C948.5,286.5 955.5,293 951,295.5C949,296.5 947,293 945.5,294.5C944,295.5 945,297 945.5,298L948,295.5M952.5,290C966,292 949.5,309.5 945.5,298M502,291.5C509,292 509.5,302 502.5,303.5C501.5,303.5 500,303.5 499,303C497,302 494,298.5 495,296C496,294 500,289.5 502,293C503.5,296 498.5,299 497,298M956,291.5L953,293.5M217.5,294C220.5,293 223,296 223.5,298.5C224,301.5 221.5,304.5 218.5,305.5C215,307 209.5,303.5 211,299.5C211.5,298 216,294.5 217.5,294M496.5,295L498.5,297M215.5,297.5L211.5,302.5M788.5,301.5C789.5,298 792.5,297.5 795.5,299C795,300.5 794,303.5 792,304C790.5,304 789,301 787.5,302.5C784.5,304.5 789,309 791,309.5C798,311.5 803.5,300.5 795.5,299M61.5,302.5C63,300 65,300 67.5,300L68,300.5C66.5,305 65,307 61,303C58,307 61.5,313 67,311.5C72.5,310 75,301.5 68,300.5M80,313C81.5,312 82.5,312 84,313M215,481.5C226.5,478.5 238.5,484.5 240.5,496.5C241,499 241.5,502.5 240,505C237.5,509 229.5,513 225,514C217,516 206,512.5 202,504.5C198,496 207,483 215,481.5M346.5,481.5C358,479 375,493 369,505.5C368.5,507.5 366,507.5 364.5,509C361,511.5 358,514 353.5,515C345,516.5 333,512.5 330.5,503.5C327,493.5 338,483 346.5,481.5M510.5,481C521.5,479.5 532.5,487 534,498C534,500.5 534,504.5 533,507C532,508.5 529.5,508.5 528,509.5C524,511.5 521,514.5 516,515C509,516.5 496.5,511 494.5,504C491.5,494.5 502,483 510.5,481M54.5,486.5C66.5,483.5 84.5,495 78.5,509C77,513.5 68,518 63.5,519C55.5,520.5 45,518.5 40.5,510.5C36,501 45.5,488 54.5,486.5M948,487C959,485 970,492 972,503C972.5,506 973,510.5 971,513C970,514.5 968,514.5 966.5,515C963,516.5 960.5,519 956.5,520C947.5,521.5 937,518.5 933,509.5C929.5,500.5 939.5,489 948,487M652,494.5C663.5,492.5 674.5,498.5 676.5,510.5C677,513.5 677.5,517.5 676,520C675,521.5 672.5,521.5 671,522.5C666.5,525 664,527 659,528C652,529.5 641,525 638,518C634.5,509 643,496.5 652,494.5M216.5,498C217,497 217.5,496.5 218,496C224,492 223.5,503 218.5,500.5C218,500 217,499 216.5,498.5C215,500.5 215,501.5 216,503.5L218.5,501M223,495C235,497 221.5,514.5 216,503.5M515.5,499L514.5,495.5L515,495L519.5,496.5C518,498 516,500.5 514,501C511.5,501.5 505.5,497.5 508.5,503.5L511,501M348,501C351,501 352,498.5 350.5,496L351,495.5C360,496 357,508.5 349,507C343.5,506.5 342.5,497.5 347.5,501L344.5,504M509,499C510.5,497 511.5,496 514.5,495.5M345.5,498.5C347,496.5 348,496 350.5,496M519.5,497C524,505 512.5,511.5 508.5,503.5M58,502.5C62,497 68,502.5 65.5,508C64,511 56,514.5 55,509.5C54.5,508 58,505 58.5,503.5L57.5,502.5C54.5,504 52,505 54,508.5M950,504.5C951,503 952.5,501.5 954,501C959.5,499.5 960,508 957.5,511C954,515 945.5,513 947,507C947.5,505.5 950,504.5 950.5,506.5C951,508 949,509.5 948,510.5M658,508.5C666,509 665,520 657.5,520.5C654.5,520.5 649.5,517 651,513.5C652,511.5 654.5,514 656,514C659,514 658,510.5 658,508.5M652.5,512C653.5,509.5 655,509 657.5,509M655,514L652,517M787,517.5C798,515 810,521.5 812,533C812.5,536 812.5,540 811,542.5C810,544 808,544 806.5,545C802.5,547 800,549.5 795.5,550.5C787,552 775.5,547.5 773,538.5C770.5,530 779,519 787,517.5M793,531C799,528 800.5,540 795,542.5C791.5,544 785,541.5 786.5,536.5C787,535.5 792,531.5 793,531M791.5,534.5L787,539.5M508.5,693C521,691 537,705.5 530,718.5C528,722.5 517.5,726.5 513,727C506,728.5 493.5,723.5 491.5,715.5C489.5,705 498.5,695 508.5,693M512,707.5C519.5,707 519,718.5 512.5,719.5C503.5,720.5 503,708.5 512,707.5M511.5,708C514,712.5 510,713.5 507,710.5M653.5,711C665.5,709 684,723.5 676,737C675,738.5 672.5,739 671,739.5C667,742 664,744.5 659,745C652,746.5 640,741.5 638,734.5C635,724.5 644,713 653.5,711M353.5,715C364,713 375.5,719.5 377.5,730.5C378,733 378.5,736.5 377,739C374,744 365.5,747.5 360,748C352.5,749.5 342,745.5 339,738C335.5,728.5 344.5,717 353.5,715M657.5,725.5C664.5,724 665.5,734 660,736.5C655.5,739 648.5,733.5 652.5,729C653,729.5 653.5,730 654.5,730.5C660.5,733 657.5,721 652.5,728.5M201,728C213,726 230.5,738 224,752C222,756.5 212,760.5 207.5,761C200,762.5 189,759.5 186,751.5C182,741.5 191,730 201,728M353.5,732C359,725.5 362,734.5 355.5,735C354.5,731 351,733.5 352.5,737L355.5,735M360,729C369,730.5 363.5,744 356,740.5C354.5,740 353.5,739 352.5,737.5M50,731.5C63,728.5 79.5,743 73,756.5C72,758.5 70,758.5 68.5,759.5C64.5,761 61.5,764 57,765C50,766.5 37,762 35,754.5C32,745 41,733.5 50,731.5M655,731L652,734M203,742.5C211,740 215,751 206.5,754C199,756.5 196,744.5 203,742.5M207,742.5C206.5,747.5 204,749 200.5,745.5M55.5,749L54.5,745.5L55,745L59.5,746.5C58,748 55.5,751 53.5,751C52,751 50,748 48.5,749.5C46.5,751 48.5,754 49.5,755.5C53.5,759 60.5,757 60.5,751C60.5,749.5 60,748.5 59.5,747M49.5,748.5C51,746.5 52,745.5 54.5,745.5M801.5,758C802,763.5 808,766 812.5,762C814,760.5 814,757.5 816.5,756.5C818.5,755.5 825,755 825.5,757C828,762 822.5,764.5 819.5,766C811.5,770.5 803,772.5 795,767C793,765.5 785.5,758.5 790,756.5C795.5,753.5 801.5,759 806.5,756.5M953,762C956.5,764.5 960.5,765 963.5,761C964.5,759.5 964.5,757.5 966,756.5C967.5,755.5 970,756 971.5,756C972.5,756 974.5,755.5 975.5,756.5C978.5,758.5 975,763.5 973,764.5C966,768.5 959.5,772.5 951.5,770C947,768.5 936.5,763.5 940,757C941,755 949,755.5 951,757C952,758 952,760 953,761.5L956.5,758L956.5,757.5L952,757.5" style="fill:none;fill-rule:nonzero;stroke:white;stroke-opacity:0.5;stroke-width:1px;"/>
            </g>
        </g>
    </g>
</svg>
